<?xml version="1.0"?>
<svg xmlns="http://www.w3.org/2000/svg" xmlns:xlink="http://www.w3.org/1999/xlink" xmlns:svgjs="http://svgjs.com/svgjs" version="1.1" width="512" height="512" x="0" y="0" viewBox="0 0 512 512" style="enable-background:new 0 0 512 512" xml:space="preserve" class=""><g><g xmlns="http://www.w3.org/2000/svg" id="solid"><path d="m180.979 355.771-12.979 2.021v75.863a120.242 120.242 0 0 0 176 0v-75.863l-12.979-2.021a487.235 487.235 0 0 0 -150.042 0zm133.221 82.865a211.66 211.66 0 0 1 -116.394 0 8 8 0 0 1 4.394-15.385 195.662 195.662 0 0 0 107.606 0 8 8 0 0 1 4.394 15.385zm0-39.843a211.642 211.642 0 0 1 -116.4 0 8 8 0 0 1 4.4-15.385 195.655 195.655 0 0 0 107.6 0 8 8 0 0 1 4.4 15.385z" fill="#dae9f4" data-original="#000000" style="" class=""/><path d="m136 352a119.748 119.748 0 0 0 16 60.035v-58.966l-16-28z" fill="#dae9f4" data-original="#000000" style="" class=""/><path d="m421.131 172.423a170.5 170.5 0 0 0 -115.055-112.54l-35.149-10.252a106.62 106.62 0 0 0 -105.27 26.969 8.008 8.008 0 0 1 -2.408 1.653l-12.833 5.7a107.218 107.218 0 0 0 -62.509 84.226 223 223 0 0 0 17.5 118.222l2.256 5.074a47.571 47.571 0 0 1 12.337-3.852v-24.679a8 8 0 0 1 1.446-4.588l56-80a8 8 0 0 1 12.5-.764 234.007 234.007 0 0 0 173.683 77.352h20.371a8 8 0 0 1 8 8v24.679a47.782 47.782 0 0 1 21.054 9.146l3.789-9.472a171.264 171.264 0 0 0 4.288-114.874z" fill="#dae9f4" data-original="#000000" style="" class=""/><path d="m360 412.035a119.748 119.748 0 0 0 16-60.035v-25.181l-16 28z" fill="#dae9f4" data-original="#000000" style="" class=""/><path d="m96 334.944a32.059 32.059 0 0 0 24 30.988v-61.976a32.059 32.059 0 0 0 -24 30.988z" fill="#dae9f4" data-original="#000000" style="" class=""/><path d="m392 303.956v61.976a32.005 32.005 0 0 0 0-61.976z" fill="#dae9f4" data-original="#000000" style="" class=""/><path d="m184.9 195.6-48.9 69.866v27.353l28.211 49.369 14.307-2.226a503.226 503.226 0 0 1 154.964 0l15.225 2.369 27.293-47.762v-23.625h-12.371a250.07 250.07 0 0 1 -178.729-75.344zm15.1 124.344a17 17 0 1 1 17-17 17 17 0 0 1 -17 17zm113 0a17 17 0 1 1 17-17 17 17 0 0 1 -17 17z" fill="#dae9f4" data-original="#000000" style="" class=""/></g></g></svg>
