<?xml version="1.0"?>
<svg xmlns="http://www.w3.org/2000/svg" xmlns:xlink="http://www.w3.org/1999/xlink" xmlns:svgjs="http://svgjs.com/svgjs" version="1.1" width="512" height="512" x="0" y="0" viewBox="0 0 24 24" style="enable-background:new 0 0 512 512" xml:space="preserve" class=""><g><path xmlns="http://www.w3.org/2000/svg" d="m12 0c-6.617 0-12 5.383-12 12s5.383 12 12 12 12-5.383 12-12-5.383-12-12-12zm8 14.848c0 .454-.247.874-.644 1.094-.188.104-.397.156-.606.156-.229 0-.46-.063-.662-.189l-2.088-1.306v.147c0 1.241-1.01 2.25-2.25 2.25h-7.5c-1.24 0-2.25-1.009-2.25-2.25v-5.5c0-1.241 1.01-2.25 2.25-2.25h7.5c1.24 0 2.25 1.009 2.25 2.25v.147l2.088-1.305c.386-.241.871-.252 1.269-.033.396.22.643.639.643 1.093z" fill="#ffffff" data-original="#000000" style="" class=""/></g></svg>
